<svg version="1.1" viewBox="0 0 500 500" xmlns="http://www.w3.org/2000/svg">
 <path d="m239.58 332.64 8.5417 50.894c-5.4167 2.8997-14.167 5.5994-25.833 8.0991-11.875 2.6997-25.833 4.1995-41.875 4.1995-46.042-0.8999-80.625-14.598-103.75-40.895-23.333-26.397-35-59.993-35-100.59 1.0417-48.095 15-84.99 41.667-110.79 27.5-26.097 61.667-39.396 102.92-39.396 15.625 0 29.167 1.4998 40.417 3.9996 11.25 2.4997 19.583 5.1994 25 8.2991l-12.083 51.894-22.083-7.0992c-8.3333-2.0998-17.917-3.0996-28.958-3.0996-24.167-0.19998-44.167 7.4992-59.792 22.897-15.833 15.198-23.958 38.496-24.583 69.592 0 28.297 7.7083 50.394 22.5 66.592 14.792 16.098 35.625 24.397 62.292 24.597l27.708-2.4997c8.9583-1.6998 16.458-3.8996 22.917-6.6992m49.792 63.193 12.708-83.391h-31.25l7.0833-41.595h31.25l6.6667-41.695h-31.25l7.0833-41.695h31.25l12.708-83.291h41.667l-12.708 83.291h20.833l12.708-83.291h41.667l-12.708 83.291h31.25l-7.0834 41.695h-31.25l-6.6667 41.695h31.25l-7.0834 41.595h-31.25l-12.708 83.391h-41.667l12.708-83.391h-20.833l-12.708 83.391h-41.667m61.458-124.99h20.833l6.6667-41.695h-20.833z" fill="#0277bd" stroke-width="20.832"/>
</svg>
