<svg width="14" height="14" viewBox="0 0 14 14" fill="none" xmlns="http://www.w3.org/2000/svg">
<path stroke-dasharray="30" stroke-dashoffset="30" d="M4.8489 6.79764V6.79764H4.84653C4.71549 6.79764 4.36316 6.8006 3.96559 7.0643C3.57452 7.32369 3.20112 7.79316 2.91452 8.59632C2.91053 8.60749 2.90694 8.61881 2.90375 8.63024L2.34323 10.6432L2.34313 10.6436C2.23322 11.0395 2.1762 11.3751 2.18108 11.6575C2.18602 11.9439 2.25603 12.2183 2.44406 12.4343C2.63106 12.6491 2.87359 12.7355 3.07404 12.7738C3.26821 12.8109 3.47672 12.8122 3.64201 12.8127C3.64862 12.8127 3.65523 12.8126 3.66183 12.8124C4.7062 12.7738 5.4089 12.1345 5.63893 11.3616C6.10293 11.4136 6.60083 11.4382 7.09386 11.4382C7.58738 11.4382 8.08567 11.4136 8.55063 11.3615C8.78062 12.1344 9.48334 12.7738 10.5278 12.8124C10.5339 12.8126 10.5401 12.8127 10.5462 12.8127C10.7115 12.8127 10.9198 12.8117 11.1142 12.7746C11.3149 12.7363 11.5573 12.6496 11.744 12.4345C11.9316 12.2183 12.0014 11.944 12.0063 11.6577C12.0111 11.3752 11.9541 11.0396 11.8442 10.6436L11.8441 10.6432L11.2836 8.63024C11.2805 8.61899 11.2769 8.60785 11.273 8.59685C10.9874 7.79367 10.6147 7.324 10.2238 7.06445C9.82646 6.80059 9.47407 6.79764 9.34306 6.79764H9.34119C9.33428 6.79764 9.32727 6.79763 9.32016 6.79763C9.13412 6.7975 8.88135 6.79734 8.61596 6.87965C8.39095 6.94944 8.17856 7.06985 7.9702 7.2555C7.68264 7.23298 7.38786 7.22168 7.09386 7.22168C6.79987 7.22168 6.5051 7.23298 6.21755 7.2555C6.00897 7.06973 5.79638 6.94968 5.57133 6.88017C5.30956 6.79932 5.05928 6.79842 4.87562 6.79775C4.86654 6.79772 4.85764 6.79768 4.8489 6.79764Z" stroke="currentColor" stroke-linejoin="round">
<animate fill="freeze" attributeName="stroke-dashoffset" dur="0.6s" values="30;0"/>
</path>
<path stroke-dasharray="40" stroke-dashoffset="40" d="M2.56421 1.06861C2.0408 1.37905 1.01012 2.56233 1 2.87277V3.3883C1 4.0388 1.60926 4.6132 2.16191 4.6132C2.82591 4.6132 3.3808 4.06243 3.3808 3.40855C3.3808 4.06243 3.91358 4.6132 4.57945 4.6132C5.24345 4.6132 5.76086 4.06243 5.76086 3.40855C5.76086 4.06243 6.32925 4.6132 6.99325 4.6132H7.00525C7.67112 4.6132 8.23914 4.06243 8.23914 3.40855C8.23914 4.06243 8.75692 4.6132 9.42092 4.6132C10.0849 4.6132 10.6196 4.06243 10.6196 3.40855C10.6196 4.06243 11.1726 4.6132 11.8362 4.6132C12.3907 4.6132 13 4.0388 13 3.3883V2.87277C12.988 2.56233 11.9592 1.37905 11.4339 1.06861C9.8071 1.01012 8.68044 1 7.00112 1C5.31994 1.00187 3.02949 1.02737 2.56646 1.06861H2.56421Z" stroke="currentColor" stroke-linejoin="round">
<animate fill="freeze" attributeName="stroke-dashoffset" dur="0.6s" values="40;0"/>
</path>
</svg>
